# xmcd CD database file
#
# Track frame offsets:
#	150
#	18595
#	40450
#	59038
#	81123
#	103953
#	123910
#	141220
#	163703
#	181845
#	205483
#	227490
#	250483
#	269518
#	286578
#
# Disc length: 4105 seconds
#
# Revision: 2
# Processed by: cddbd v1.5.2PL0 Copyright (c) Steve Scherf et al.
# Submitted via: jetAudio 7
#
DISCID=de10070f
DTITLE=BOYZ II MEN - FULL CIRCLE
DYEAR=2002
DGENRE=R&B
TTITLE0=BOYZ II MEN - Relax Your Mind
TTITLE1=BOYZ II MEN - The Color Of Love
TTITLE2=BOYZ II MEN - Ain't A Thang Wrong
TTITLE3=BOYZ II MEN - Oh Well
TTITLE4=BOYZ II MEN - Whatcha Need
TTITLE5=BOYZ II MEN - On The Road Again
TTITLE6=BOYZ II MEN - Roll Wit Me
TTITLE7=BOYZ II MEN - Right On Time
TTITLE8=BOYZ II MEN - Howz About It
TTITLE9=BOYZ II MEN - That's Why I Love You
TTITLE10=BOYZ II MEN - I'm OK,You're OK
TTITLE11=BOYZ II MEN - Luv N U
TTITLE12=BOYZ II MEN - I'll Show You
TTITLE13=BOYZ II MEN - Woman Don't Cry
TTITLE14=BOYZ II MEN - You're My Baby
EXTD=
EXTT0=
EXTT1=
EXTT2=
EXTT3=
EXTT4=
EXTT5=
EXTT6=
EXTT7=
EXTT8=
EXTT9=
EXTT10=
EXTT11=
EXTT12=
EXTT13=
EXTT14=
PLAYORDER=
